<svg width="67" height="86" viewBox="0 0 67 86" fill="none" xmlns="http://www.w3.org/2000/svg">
<path fill-rule="evenodd" clip-rule="evenodd" d="M15.5003 8.09405C11.7928 8.09405 8.78729 11.0996 8.78729 14.807L8.78729 61.1877C8.78729 64.8952 11.7928 67.9007 15.5003 67.9007H19.4671V76.7497C19.4671 77.2433 19.7644 77.6884 20.2205 77.8773C20.6766 78.0662 21.2016 77.9618 21.5507 77.6127L24.9595 74.2039L28.3684 77.6127C28.7174 77.9618 29.2424 78.0662 29.6985 77.8773C30.1546 77.6884 30.452 77.2433 30.452 76.7497V67.9007H53.9474C54.9586 67.9007 55.7782 67.081 55.7782 66.0699C55.7782 65.0588 54.9586 64.2391 53.9474 64.2391H52.1166V58.1364H56.3885C57.3996 58.1364 58.2193 57.3167 58.2193 56.3055C58.2193 56.2016 58.2107 56.0996 58.194 56.0004C58.2107 55.9012 58.2193 55.7992 58.2193 55.6953V14.807C58.2193 11.0996 55.2138 8.09405 51.5063 8.09405L15.5003 8.09405ZM30.452 64.2391H48.455V58.1364H15.5003C13.8151 58.1364 12.4489 59.5025 12.4489 61.1877C12.4489 62.8729 13.8151 64.2391 15.5003 64.2391H19.4671V61.1877C19.4671 60.5136 20.0135 59.9672 20.6876 59.9672H29.2314C29.9055 59.9672 30.452 60.5136 30.452 61.1877V64.2391ZM21.9081 66.068V62.4083H28.0109V66.0699V73.803L25.8226 71.6147C25.3459 71.138 24.5731 71.138 24.0964 71.6147L21.9081 73.803V66.0718C21.9081 66.0712 21.9081 66.0705 21.9081 66.0699C21.9081 66.0693 21.9081 66.0686 21.9081 66.068ZM54.5577 54.4747V14.807C54.5577 13.1218 53.1916 11.7557 51.5063 11.7557L15.5003 11.7557C13.8151 11.7557 12.4489 13.1218 12.4489 14.807L12.4489 55.2067C13.3644 54.7387 14.4015 54.4747 15.5003 54.4747H54.5577Z" fill="#070217"/>
</svg>
